# xmcd
#
# Track frame offsets:
#	150
#	15100
#	27065
#	41565
#	58723
#	81380
#	96410
#	120077
#	134842
#	155183
#	171864
#	186002
#	202846
#	219784
#	249118
#	263688
#	286391
#	305419
#
# Disc length: 4283 seconds
# Revision: 0
# Processed by: cddbd v1.5.2PL0 Copyright (c) Steve Scherf et al.
# Submitted via: dBpowerAMP V12.0
#
DISCID=eb10b912
DTITLE=Daryl Roberts - Best Of Hey Gringo
DYEAR=2014
DGENRE=Blues
TTITLE0=Go Your Own Way
TTITLE1=Only Thing I Need
TTITLE2=Soul
TTITLE3=Never Let Go
TTITLE4=Funky Car
TTITLE5=Tell Me Something
TTITLE6=Gimme Back My Brain
TTITLE7=Can't Say No
TTITLE8=Think About It
TTITLE9=Ticket To Go
TTITLE10=End Of The Road
TTITLE11=No Doubt About It
TTITLE12=Won't Let You Down
TTITLE13=Moonslap
TTITLE14=Face Myself
TTITLE15=Life Is A Mystery
TTITLE16=Play Something We Know
TTITLE17=Get The Funk Out
EXTD=
EXTT0=
EXTT1=
EXTT2=
EXTT3=
EXTT4=
EXTT5=
EXTT6=
EXTT7=
EXTT8=
EXTT9=
EXTT10=
EXTT11=
EXTT12=
EXTT13=
EXTT14=
EXTT15=
EXTT16=
EXTT17=
PLAYORDER=
